<?xml version="1.0" encoding="utf-8"?>
<!-- Generator: Adobe Illustrator 16.0.0, SVG Export Plug-In . SVG Version: 6.00 Build 0)  -->
<!DOCTYPE svg PUBLIC "-//W3C//DTD SVG 1.1//EN" "http://www.w3.org/Graphics/SVG/1.1/DTD/svg11.dtd">
<svg version="1.1" id="Layer_1" xmlns="http://www.w3.org/2000/svg" xmlns:xlink="http://www.w3.org/1999/xlink" x="0px" y="0px"
	 width="66px" height="66px" viewBox="0 0 66 66" enable-background="new 0 0 66 66" xml:space="preserve">
<g>
	<g>
		<path fill="#AECACE" d="M22.5,27V14.792C22.5,10.932,26.14,8,29,8h7c4.858,0,7.5,2.932,7.5,6.792V27h6V14.792
			C49.5,7.623,44.168,2,36,2h-7c-6.168,0-12.5,5.623-12.5,12.792V27H22.5z"/>
		<path fill="#97B8BF" d="M37,2h-4.5v6H37c3.858,0,6.5,2.932,6.5,6.792V27h6V14.792C49.5,7.623,44.168,2,37,2z"/>
	</g>
	<path fill="#E8961F" d="M52.5,58.249C52.5,61.54,50.499,64,47.208,64H19.794c-3.291,0-6.294-2.46-6.294-5.751V28.835
		c0-3.292,3.003-3.835,6.294-3.835h27.414c3.291,0,5.292,0.543,5.292,3.835V58.249z"/>
	<path fill="#D88416" d="M13.5,28.835c0-3.292,3.003-3.835,6.294-3.835h27.414c3.291,0,5.292,0.543,5.292,3.835v29.414
		C52.5,61.54,50.499,64,47.208,64"/>
	<path fill="#F9A83D" d="M17.5,58.125c0,0.483-0.392,0.875-0.875,0.875h-0.25c-0.483,0-0.875-0.392-0.875-0.875v-23.25
		c0-0.483,0.392-0.875,0.875-0.875h0.25c0.483,0,0.875,0.392,0.875,0.875V58.125z"/>
	<path fill="#4C3213" d="M38.414,40.298c0-2.807-2.191-5.083-4.998-5.083s-4.872,2.276-4.872,5.083c0,1.958,0.956,3.639,2.956,4.487
		v9.358c0,1.292,0.708,2.339,2.001,2.339c1.291,0,1.999-1.047,1.999-2.339v-9.357C37.5,43.938,38.414,42.257,38.414,40.298z"/>
	<path fill="#331F09" d="M33.332,56.483c1.291,0,2.168-1.047,2.168-2.339v-9.357c2-0.849,2.914-2.529,2.914-4.488
		c0-2.807-2.275-5.083-5.082-5.083"/>
</g>
</svg>
