<?xml version="1.0" encoding="UTF-8"?>
<svg width="256px" height="256px" viewBox="0 0 256 256" version="1.1" xmlns="http://www.w3.org/2000/svg" xmlns:xlink="http://www.w3.org/1999/xlink">
    <title>black1</title>
    <g id="Dice" stroke="none" stroke-width="1" fill="none" fill-rule="evenodd">
        <g id="Artboard-Copy-19" transform="translate(0.000000, -1280.000000)">
            <g id="Group-2"></g>
            <g id="Group" fill="#FFFFFF" stroke="#2C3E50" stroke-width="32">
                <path d="M224,1296 L32,1296 C27.581722,1296 23.581722,1297.79086 20.6862915,1300.68629 C17.790861,1303.58172 16,1307.58172 16,1312 L16,1504 C16,1508.41828 17.790861,1512.41828 20.6862915,1515.31371 C23.581722,1518.20914 27.581722,1520 32,1520 L224,1520 C228.418278,1520 232.418278,1518.20914 235.313708,1515.31371 C238.209139,1512.41828 240,1508.41828 240,1504 L240,1312 C240,1307.58172 238.209139,1303.58172 235.313708,1300.68629 C232.418278,1297.79086 228.418278,1296 224,1296 Z" id="Rectangle-Copy-31"></path>
            </g>
            <circle id="Oval-Copy-8" fill="#2C3E50" cx="128" cy="1408" r="24"></circle>
        </g>
    </g>
</svg>