<?xml version="1.0" encoding="UTF-8"?>
<svg width="256px" height="256px" viewBox="0 0 256 256" version="1.1" xmlns="http://www.w3.org/2000/svg" xmlns:xlink="http://www.w3.org/1999/xlink">
    <title>black4</title>
    <g id="Dice" stroke="none" stroke-width="1" fill="none" fill-rule="evenodd">
        <g id="Artboard-Copy-19" transform="translate(-768.000000, -1280.000000)">
            <g id="Group-2"></g>
            <g id="Group" fill="#FFFFFF" stroke="#2C3E50" stroke-width="32">
                <path d="M992,1296 L800,1296 C795.581722,1296 791.581722,1297.79086 788.686292,1300.68629 C785.790861,1303.58172 784,1307.58172 784,1312 L784,1504 C784,1508.41828 785.790861,1512.41828 788.686292,1515.31371 C791.581722,1518.20914 795.581722,1520 800,1520 L992,1520 C996.418278,1520 1000.41828,1518.20914 1003.31371,1515.31371 C1006.20914,1512.41828 1008,1508.41828 1008,1504 L1008,1312 C1008,1307.58172 1006.20914,1303.58172 1003.31371,1300.68629 C1000.41828,1297.79086 996.418278,1296 992,1296 Z" id="Rectangle-Copy-34"></path>
            </g>
            <circle id="Oval" fill="#2C3E50" cx="848" cy="1360" r="24"></circle>
            <circle id="Oval-Copy-4" fill="#2C3E50" cx="848" cy="1456" r="24"></circle>
            <circle id="Oval-Copy" fill="#2C3E50" cx="944" cy="1456" r="24"></circle>
            <circle id="Oval-Copy-3" fill="#2C3E50" cx="944" cy="1360" r="24"></circle>
        </g>
    </g>
</svg>