<?xml version="1.0" encoding="UTF-8"?>
<svg width="256px" height="256px" viewBox="0 0 256 256" version="1.1" xmlns="http://www.w3.org/2000/svg" xmlns:xlink="http://www.w3.org/1999/xlink">
    <title>black5</title>
    <g id="Dice" stroke="none" stroke-width="1" fill="none" fill-rule="evenodd">
        <g id="Artboard-Copy-19" transform="translate(-1024.000000, -1280.000000)">
            <g id="Group-2"></g>
            <g id="Group" fill="#FFFFFF" stroke="#2C3E50" stroke-width="32">
                <path d="M1248,1296 L1056,1296 C1051.58172,1296 1047.58172,1297.79086 1044.68629,1300.68629 C1041.79086,1303.58172 1040,1307.58172 1040,1312 L1040,1504 C1040,1508.41828 1041.79086,1512.41828 1044.68629,1515.31371 C1047.58172,1518.20914 1051.58172,1520 1056,1520 L1248,1520 C1252.41828,1520 1256.41828,1518.20914 1259.31371,1515.31371 C1262.20914,1512.41828 1264,1508.41828 1264,1504 L1264,1312 C1264,1307.58172 1262.20914,1303.58172 1259.31371,1300.68629 C1256.41828,1297.79086 1252.41828,1296 1248,1296 Z" id="Rectangle-Copy-35"></path>
            </g>
            <circle id="Oval" fill="#2C3E50" cx="1104" cy="1360" r="24"></circle>
            <circle id="Oval-Copy-4" fill="#2C3E50" cx="1104" cy="1456" r="24"></circle>
            <circle id="Oval-Copy" fill="#2C3E50" cx="1200" cy="1456" r="24"></circle>
            <circle id="Oval-Copy-3" fill="#2C3E50" cx="1200" cy="1360" r="24"></circle>
            <circle id="Oval-Copy-5" fill="#2C3E50" cx="1152" cy="1408" r="24"></circle>
        </g>
    </g>
</svg>