<?xml version="1.0" encoding="UTF-8"?>
<svg width="256px" height="256px" viewBox="0 0 256 256" version="1.1" xmlns="http://www.w3.org/2000/svg" xmlns:xlink="http://www.w3.org/1999/xlink">
    <title>black2</title>
    <g id="Dice" stroke="none" stroke-width="1" fill="none" fill-rule="evenodd">
        <g id="Artboard-Copy-19" transform="translate(-256.000000, -1280.000000)">
            <g id="Group-2"></g>
            <g id="Group" fill="#FFFFFF" stroke="#2C3E50" stroke-width="32">
                <path d="M480,1296 L288,1296 C283.581722,1296 279.581722,1297.79086 276.686292,1300.68629 C273.790861,1303.58172 272,1307.58172 272,1312 L272,1504 C272,1508.41828 273.790861,1512.41828 276.686292,1515.31371 C279.581722,1518.20914 283.581722,1520 288,1520 L480,1520 C484.418278,1520 488.418278,1518.20914 491.313708,1515.31371 C494.209139,1512.41828 496,1508.41828 496,1504 L496,1312 C496,1307.58172 494.209139,1303.58172 491.313708,1300.68629 C488.418278,1297.79086 484.418278,1296 480,1296 Z" id="Rectangle-Copy-32"></path>
            </g>
            <circle id="Oval-Copy-4" fill="#2C3E50" cx="336" cy="1456" r="24"></circle>
            <circle id="Oval-Copy-3" fill="#2C3E50" cx="432" cy="1360" r="24"></circle>
        </g>
    </g>
</svg>