<?xml version="1.0" encoding="UTF-8"?>
<svg width="256px" height="256px" viewBox="0 0 256 256" version="1.1" xmlns="http://www.w3.org/2000/svg" xmlns:xlink="http://www.w3.org/1999/xlink">
    <title>black6</title>
    <g id="Dice" stroke="none" stroke-width="1" fill="none" fill-rule="evenodd">
        <g id="Artboard-Copy-19" transform="translate(-1280.000000, -1280.000000)">
            <g id="Group-2"></g>
            <g id="Group" fill="#FFFFFF" stroke="#2C3E50" stroke-width="32">
                <path d="M1504,1296 L1312,1296 C1307.58172,1296 1303.58172,1297.79086 1300.68629,1300.68629 C1297.79086,1303.58172 1296,1307.58172 1296,1312 L1296,1504 C1296,1508.41828 1297.79086,1512.41828 1300.68629,1515.31371 C1303.58172,1518.20914 1307.58172,1520 1312,1520 L1504,1520 C1508.41828,1520 1512.41828,1518.20914 1515.31371,1515.31371 C1518.20914,1512.41828 1520,1508.41828 1520,1504 L1520,1312 C1520,1307.58172 1518.20914,1303.58172 1515.31371,1300.68629 C1512.41828,1297.79086 1508.41828,1296 1504,1296 Z" id="Rectangle-Copy-36"></path>
            </g>
            <circle id="Oval" fill="#2C3E50" cx="1360" cy="1408" r="24"></circle>
            <circle id="Oval-Copy-2" fill="#2C3E50" cx="1360" cy="1348" r="24"></circle>
            <circle id="Oval-Copy-4" fill="#2C3E50" cx="1360" cy="1468" r="24"></circle>
            <circle id="Oval-Copy" fill="#2C3E50" cx="1456" cy="1408" r="24"></circle>
            <circle id="Oval-Copy-3" fill="#2C3E50" cx="1456" cy="1348" r="24"></circle>
            <circle id="Oval-Copy-5" fill="#2C3E50" cx="1456" cy="1468" r="24"></circle>
        </g>
    </g>
</svg>