<?xml version="1.0" encoding="UTF-8"?>
<svg width="256px" height="256px" viewBox="0 0 256 256" version="1.1" xmlns="http://www.w3.org/2000/svg" xmlns:xlink="http://www.w3.org/1999/xlink">
    <title>green3</title>
    <g id="Dice" stroke="none" stroke-width="1" fill="none" fill-rule="evenodd">
        <g id="Artboard-Copy-19" transform="translate(-512.000000, -512.000000)">
            <g id="Group-2"></g>
            <g id="Group" fill="#FFFFFF" stroke="#27AE60" stroke-width="32">
                <path d="M736,528 L544,528 C539.581722,528 535.581722,529.790861 532.686292,532.686292 C529.790861,535.581722 528,539.581722 528,544 L528,736 C528,740.418278 529.790861,744.418278 532.686292,747.313708 C535.581722,750.209139 539.581722,752 544,752 L736,752 C740.418278,752 744.418278,750.209139 747.313708,747.313708 C750.209139,744.418278 752,740.418278 752,736 L752,544 C752,539.581722 750.209139,535.581722 747.313708,532.686292 C744.418278,529.790861 740.418278,528 736,528 Z" id="Rectangle-Copy-15"></path>
            </g>
            <circle id="Oval" fill="#27AE60" cx="640" cy="640" r="24"></circle>
            <circle id="Oval-Copy-4" fill="#27AE60" cx="592" cy="688" r="24"></circle>
            <circle id="Oval-Copy-3" fill="#27AE60" cx="688" cy="592" r="24"></circle>
        </g>
    </g>
</svg>