<?xml version="1.0" encoding="UTF-8"?>
<svg width="256px" height="256px" viewBox="0 0 256 256" version="1.1" xmlns="http://www.w3.org/2000/svg" xmlns:xlink="http://www.w3.org/1999/xlink">
    <title>green6</title>
    <g id="Dice" stroke="none" stroke-width="1" fill="none" fill-rule="evenodd">
        <g id="Artboard-Copy-19" transform="translate(-1280.000000, -512.000000)">
            <g id="Group-2"></g>
            <g id="Group" fill="#FFFFFF" stroke="#27AE60" stroke-width="32">
                <path d="M1504,528 L1312,528 C1307.58172,528 1303.58172,529.790861 1300.68629,532.686292 C1297.79086,535.581722 1296,539.581722 1296,544 L1296,736 C1296,740.418278 1297.79086,744.418278 1300.68629,747.313708 C1303.58172,750.209139 1307.58172,752 1312,752 L1504,752 C1508.41828,752 1512.41828,750.209139 1515.31371,747.313708 C1518.20914,744.418278 1520,740.418278 1520,736 L1520,544 C1520,539.581722 1518.20914,535.581722 1515.31371,532.686292 C1512.41828,529.790861 1508.41828,528 1504,528 Z" id="Rectangle-Copy-18"></path>
            </g>
            <circle id="Oval" fill="#27AE60" cx="1360" cy="640" r="24"></circle>
            <circle id="Oval-Copy-2" fill="#27AE60" cx="1360" cy="580" r="24"></circle>
            <circle id="Oval-Copy-4" fill="#27AE60" cx="1360" cy="700" r="24"></circle>
            <circle id="Oval-Copy" fill="#27AE60" cx="1456" cy="640" r="24"></circle>
            <circle id="Oval-Copy-3" fill="#27AE60" cx="1456" cy="580" r="24"></circle>
            <circle id="Oval-Copy-5" fill="#27AE60" cx="1456" cy="700" r="24"></circle>
        </g>
    </g>
</svg>