<?xml version="1.0" encoding="UTF-8"?>
<svg width="256px" height="256px" viewBox="0 0 256 256" version="1.1" xmlns="http://www.w3.org/2000/svg" xmlns:xlink="http://www.w3.org/1999/xlink">
    <title>green5</title>
    <g id="Dice" stroke="none" stroke-width="1" fill="none" fill-rule="evenodd">
        <g id="Artboard-Copy-19" transform="translate(-1024.000000, -512.000000)">
            <g id="Group-2"></g>
            <g id="Group" fill="#FFFFFF" stroke="#27AE60" stroke-width="32">
                <path d="M1248,528 L1056,528 C1051.58172,528 1047.58172,529.790861 1044.68629,532.686292 C1041.79086,535.581722 1040,539.581722 1040,544 L1040,736 C1040,740.418278 1041.79086,744.418278 1044.68629,747.313708 C1047.58172,750.209139 1051.58172,752 1056,752 L1248,752 C1252.41828,752 1256.41828,750.209139 1259.31371,747.313708 C1262.20914,744.418278 1264,740.418278 1264,736 L1264,544 C1264,539.581722 1262.20914,535.581722 1259.31371,532.686292 C1256.41828,529.790861 1252.41828,528 1248,528 Z" id="Rectangle-Copy-17"></path>
            </g>
            <circle id="Oval" fill="#27AE60" cx="1104" cy="592" r="24"></circle>
            <circle id="Oval-Copy-4" fill="#27AE60" cx="1104" cy="688" r="24"></circle>
            <circle id="Oval-Copy" fill="#27AE60" cx="1200" cy="688" r="24"></circle>
            <circle id="Oval-Copy-3" fill="#27AE60" cx="1200" cy="592" r="24"></circle>
            <circle id="Oval-Copy-5" fill="#27AE60" cx="1152" cy="640" r="24"></circle>
        </g>
    </g>
</svg>