<?xml version="1.0" encoding="UTF-8"?>
<svg width="256px" height="256px" viewBox="0 0 256 256" version="1.1" xmlns="http://www.w3.org/2000/svg" xmlns:xlink="http://www.w3.org/1999/xlink">
    <title>purple3</title>
    <g id="Dice" stroke="none" stroke-width="1" fill="none" fill-rule="evenodd">
        <g id="Artboard-Copy-19" transform="translate(-512.000000, -1024.000000)">
            <g id="Group-2"></g>
            <g id="Group" fill="#FFFFFF" stroke="#8E44AD" stroke-width="32">
                <path d="M736,1040 L544,1040 C539.581722,1040 535.581722,1041.79086 532.686292,1044.68629 C529.790861,1047.58172 528,1051.58172 528,1056 L528,1248 C528,1252.41828 529.790861,1256.41828 532.686292,1259.31371 C535.581722,1262.20914 539.581722,1264 544,1264 L736,1264 C740.418278,1264 744.418278,1262.20914 747.313708,1259.31371 C750.209139,1256.41828 752,1252.41828 752,1248 L752,1056 C752,1051.58172 750.209139,1047.58172 747.313708,1044.68629 C744.418278,1041.79086 740.418278,1040 736,1040 Z" id="Rectangle-Copy-27"></path>
            </g>
            <circle id="Oval" fill="#8E44AD" cx="640" cy="1152" r="24"></circle>
            <circle id="Oval-Copy-4" fill="#8E44AD" cx="592" cy="1200" r="24"></circle>
            <circle id="Oval-Copy-3" fill="#8E44AD" cx="688" cy="1104" r="24"></circle>
        </g>
    </g>
</svg>