<?xml version="1.0" encoding="UTF-8"?>
<svg width="256px" height="256px" viewBox="0 0 256 256" version="1.1" xmlns="http://www.w3.org/2000/svg" xmlns:xlink="http://www.w3.org/1999/xlink">
    <title>purple4</title>
    <g id="Dice" stroke="none" stroke-width="1" fill="none" fill-rule="evenodd">
        <g id="Artboard-Copy-19" transform="translate(-768.000000, -1024.000000)">
            <g id="Group-2"></g>
            <g id="Group" fill="#FFFFFF" stroke="#8E44AD" stroke-width="32">
                <path d="M992,1040 L800,1040 C795.581722,1040 791.581722,1041.79086 788.686292,1044.68629 C785.790861,1047.58172 784,1051.58172 784,1056 L784,1248 C784,1252.41828 785.790861,1256.41828 788.686292,1259.31371 C791.581722,1262.20914 795.581722,1264 800,1264 L992,1264 C996.418278,1264 1000.41828,1262.20914 1003.31371,1259.31371 C1006.20914,1256.41828 1008,1252.41828 1008,1248 L1008,1056 C1008,1051.58172 1006.20914,1047.58172 1003.31371,1044.68629 C1000.41828,1041.79086 996.418278,1040 992,1040 Z" id="Rectangle-Copy-28"></path>
            </g>
            <circle id="Oval" fill="#8E44AD" cx="848" cy="1104" r="24"></circle>
            <circle id="Oval-Copy-4" fill="#8E44AD" cx="848" cy="1200" r="24"></circle>
            <circle id="Oval-Copy" fill="#8E44AD" cx="944" cy="1200" r="24"></circle>
            <circle id="Oval-Copy-3" fill="#8E44AD" cx="944" cy="1104" r="24"></circle>
        </g>
    </g>
</svg>