<?xml version="1.0" encoding="UTF-8"?>
<svg width="256px" height="256px" viewBox="0 0 256 256" version="1.1" xmlns="http://www.w3.org/2000/svg" xmlns:xlink="http://www.w3.org/1999/xlink">
    <title>purple5</title>
    <g id="Dice" stroke="none" stroke-width="1" fill="none" fill-rule="evenodd">
        <g id="Artboard-Copy-19" transform="translate(-1024.000000, -1024.000000)">
            <g id="Group-2"></g>
            <g id="Group" fill="#FFFFFF" stroke="#8E44AD" stroke-width="32">
                <path d="M1248,1040 L1056,1040 C1051.58172,1040 1047.58172,1041.79086 1044.68629,1044.68629 C1041.79086,1047.58172 1040,1051.58172 1040,1056 L1040,1248 C1040,1252.41828 1041.79086,1256.41828 1044.68629,1259.31371 C1047.58172,1262.20914 1051.58172,1264 1056,1264 L1248,1264 C1252.41828,1264 1256.41828,1262.20914 1259.31371,1259.31371 C1262.20914,1256.41828 1264,1252.41828 1264,1248 L1264,1056 C1264,1051.58172 1262.20914,1047.58172 1259.31371,1044.68629 C1256.41828,1041.79086 1252.41828,1040 1248,1040 Z" id="Rectangle-Copy-29"></path>
            </g>
            <circle id="Oval" fill="#8E44AD" cx="1104" cy="1104" r="24"></circle>
            <circle id="Oval-Copy-4" fill="#8E44AD" cx="1104" cy="1200" r="24"></circle>
            <circle id="Oval-Copy" fill="#8E44AD" cx="1200" cy="1200" r="24"></circle>
            <circle id="Oval-Copy-3" fill="#8E44AD" cx="1200" cy="1104" r="24"></circle>
            <circle id="Oval-Copy-5" fill="#8E44AD" cx="1152" cy="1152" r="24"></circle>
        </g>
    </g>
</svg>