<?xml version="1.0" encoding="UTF-8"?>
<svg width="256px" height="256px" viewBox="0 0 256 256" version="1.1" xmlns="http://www.w3.org/2000/svg" xmlns:xlink="http://www.w3.org/1999/xlink">
    <title>red4</title>
    <g id="Dice" stroke="none" stroke-width="1" fill="none" fill-rule="evenodd">
        <g id="Artboard-Copy-19" transform="translate(-768.000000, 0.000000)">
            <g id="Group-2"></g>
            <g id="Group" fill="#FFFFFF" stroke="#C0392B" stroke-width="32">
                <path d="M992,16 L800,16 C795.581722,16 791.581722,17.790861 788.686292,20.6862915 C785.790861,23.581722 784,27.581722 784,32 L784,224 C784,228.418278 785.790861,232.418278 788.686292,235.313708 C791.581722,238.209139 795.581722,240 800,240 L992,240 C996.418278,240 1000.41828,238.209139 1003.31371,235.313708 C1006.20914,232.418278 1008,228.418278 1008,224 L1008,32 C1008,27.581722 1006.20914,23.581722 1003.31371,20.6862915 C1000.41828,17.790861 996.418278,16 992,16 Z" id="Rectangle-Copy-4"></path>
            </g>
            <circle id="Oval" fill="#C0392B" cx="848" cy="80" r="24"></circle>
            <circle id="Oval-Copy-4" fill="#C0392B" cx="848" cy="176" r="24"></circle>
            <circle id="Oval-Copy" fill="#C0392B" cx="944" cy="176" r="24"></circle>
            <circle id="Oval-Copy-3" fill="#C0392B" cx="944" cy="80" r="24"></circle>
        </g>
    </g>
</svg>