<?xml version="1.0" encoding="UTF-8"?>
<svg width="256px" height="256px" viewBox="0 0 256 256" version="1.1" xmlns="http://www.w3.org/2000/svg" xmlns:xlink="http://www.w3.org/1999/xlink">
    <title>red6</title>
    <g id="Dice" stroke="none" stroke-width="1" fill="none" fill-rule="evenodd">
        <g id="Artboard-Copy-19" transform="translate(-1280.000000, 0.000000)">
            <g id="Group-2"></g>
            <g id="Group" fill="#FFFFFF" stroke="#C0392B" stroke-width="32">
                <path d="M1504,16 L1312,16 C1307.58172,16 1303.58172,17.790861 1300.68629,20.6862915 C1297.79086,23.581722 1296,27.581722 1296,32 L1296,224 C1296,228.418278 1297.79086,232.418278 1300.68629,235.313708 C1303.58172,238.209139 1307.58172,240 1312,240 L1504,240 C1508.41828,240 1512.41828,238.209139 1515.31371,235.313708 C1518.20914,232.418278 1520,228.418278 1520,224 L1520,32 C1520,27.581722 1518.20914,23.581722 1515.31371,20.6862915 C1512.41828,17.790861 1508.41828,16 1504,16 Z" id="Rectangle-Copy-6"></path>
            </g>
            <circle id="Oval" fill="#C0392B" cx="1360" cy="128" r="24"></circle>
            <circle id="Oval-Copy-2" fill="#C0392B" cx="1360" cy="68" r="24"></circle>
            <circle id="Oval-Copy-4" fill="#C0392B" cx="1360" cy="188" r="24"></circle>
            <circle id="Oval-Copy" fill="#C0392B" cx="1456" cy="128" r="24"></circle>
            <circle id="Oval-Copy-3" fill="#C0392B" cx="1456" cy="68" r="24"></circle>
            <circle id="Oval-Copy-5" fill="#C0392B" cx="1456" cy="188" r="24"></circle>
        </g>
    </g>
</svg>