<?xml version="1.0" encoding="UTF-8"?>
<svg width="256px" height="256px" viewBox="0 0 256 256" version="1.1" xmlns="http://www.w3.org/2000/svg" xmlns:xlink="http://www.w3.org/1999/xlink">
    <title>yellow5</title>
    <g id="Dice" stroke="none" stroke-width="1" fill="none" fill-rule="evenodd">
        <g id="Artboard-Copy-19" transform="translate(-1024.000000, -256.000000)">
            <g id="Group-2"></g>
            <g id="Group" fill="#FFFFFF" stroke="#F39C12" stroke-width="32">
                <path d="M1248,272 L1056,272 C1051.58172,272 1047.58172,273.790861 1044.68629,276.686292 C1041.79086,279.581722 1040,283.581722 1040,288 L1040,480 C1040,484.418278 1041.79086,488.418278 1044.68629,491.313708 C1047.58172,494.209139 1051.58172,496 1056,496 L1248,496 C1252.41828,496 1256.41828,494.209139 1259.31371,491.313708 C1262.20914,488.418278 1264,484.418278 1264,480 L1264,288 C1264,283.581722 1262.20914,279.581722 1259.31371,276.686292 C1256.41828,273.790861 1252.41828,272 1248,272 Z" id="Rectangle-Copy-11"></path>
            </g>
            <circle id="Oval" fill="#F39C12" cx="1104" cy="336" r="24"></circle>
            <circle id="Oval-Copy-4" fill="#F39C12" cx="1104" cy="432" r="24"></circle>
            <circle id="Oval-Copy" fill="#F39C12" cx="1200" cy="432" r="24"></circle>
            <circle id="Oval-Copy-3" fill="#F39C12" cx="1200" cy="336" r="24"></circle>
            <circle id="Oval-Copy-5" fill="#F39C12" cx="1152" cy="384" r="24"></circle>
        </g>
    </g>
</svg>