<?xml version="1.0" encoding="UTF-8"?>
<svg width="256px" height="256px" viewBox="0 0 256 256" version="1.1" xmlns="http://www.w3.org/2000/svg" xmlns:xlink="http://www.w3.org/1999/xlink">
    <title>yellow6</title>
    <g id="Dice" stroke="none" stroke-width="1" fill="none" fill-rule="evenodd">
        <g id="Artboard-Copy-19" transform="translate(-1280.000000, -256.000000)">
            <g id="Group-2"></g>
            <g id="Group" fill="#FFFFFF" stroke="#F39C12" stroke-width="32">
                <path d="M1504,272 L1312,272 C1307.58172,272 1303.58172,273.790861 1300.68629,276.686292 C1297.79086,279.581722 1296,283.581722 1296,288 L1296,480 C1296,484.418278 1297.79086,488.418278 1300.68629,491.313708 C1303.58172,494.209139 1307.58172,496 1312,496 L1504,496 C1508.41828,496 1512.41828,494.209139 1515.31371,491.313708 C1518.20914,488.418278 1520,484.418278 1520,480 L1520,288 C1520,283.581722 1518.20914,279.581722 1515.31371,276.686292 C1512.41828,273.790861 1508.41828,272 1504,272 Z" id="Rectangle-Copy-12"></path>
            </g>
            <circle id="Oval" fill="#F39C12" cx="1360" cy="384" r="24"></circle>
            <circle id="Oval-Copy-2" fill="#F39C12" cx="1360" cy="324" r="24"></circle>
            <circle id="Oval-Copy-4" fill="#F39C12" cx="1360" cy="444" r="24"></circle>
            <circle id="Oval-Copy" fill="#F39C12" cx="1456" cy="384" r="24"></circle>
            <circle id="Oval-Copy-3" fill="#F39C12" cx="1456" cy="324" r="24"></circle>
            <circle id="Oval-Copy-5" fill="#F39C12" cx="1456" cy="444" r="24"></circle>
        </g>
    </g>
</svg>